<?xml version="1.0" encoding="UTF-8"?>
<svg width="23px" height="20px" viewBox="0 0 23 20" version="1.1" xmlns="http://www.w3.org/2000/svg" xmlns:xlink="http://www.w3.org/1999/xlink">
    <g id="Page-1" stroke="none" stroke-width="1" fill="none" fill-rule="evenodd">
        <path d="M8.57143879,13.7142806 C8.57143879,14.6919603 8.06250961,16.2857122 6.85715103,16.2857122 C5.65179245,16.2857122 5.14286327,14.6919603 5.14286327,13.7142806 C5.14286327,12.7366009 5.65179245,11.142849 6.85715103,11.142849 C8.06250961,11.142849 8.57143879,12.7366009 8.57143879,13.7142806 Z M17.1428776,13.7142806 C17.1428776,14.6919603 16.6339484,16.2857122 15.4285898,16.2857122 C14.2232312,16.2857122 13.7143021,14.6919603 13.7143021,13.7142806 C13.7143021,12.7366009 14.2232312,11.142849 15.4285898,11.142849 C16.6339484,11.142849 17.1428776,12.7366009 17.1428776,13.7142806 Z M19.2857373,13.7142806 C19.2857373,11.665171 18.0402001,9.85713315 15.8571618,9.85713315 C14.9732321,9.85713315 14.1294811,10.0178476 13.2455515,10.1383835 C12.5491221,10.2455265 11.8526927,10.2857051 11.1428704,10.2857051 C10.4330482,10.2857051 9.73661875,10.2455265 9.04018935,10.1383835 C8.1696526,10.0178476 7.31250872,9.85713315 6.42857909,9.85713315 C4.24554078,9.85713315 3.00000358,11.665171 3.00000358,13.7142806 C3.00000358,17.8124998 6.75000805,18.4419648 10.0178691,18.4419648 L12.2678718,18.4419648 C15.5357328,18.4419648 19.2857373,17.8124998 19.2857373,13.7142806 Z M22.2857409,11.3571349 C22.2857409,12.8437439 22.1384192,14.4241029 21.4687756,15.7901759 C19.7009163,19.3660731 14.8393034,19.7142878 11.3571564,19.7142878 C7.8214379,19.7142878 2.66518175,19.4062517 0.830358133,15.7901759 C0.147321604,14.4374958 0,12.8437439 0,11.3571349 C0,9.40177546 0.535714924,7.55355898 1.82143074,6.05355719 C1.58035903,5.31694917 1.45982317,4.54016253 1.45982317,3.77676876 C1.45982317,2.77230328 1.68750201,1.76783779 2.1428597,0.857122421 C4.25893365,0.857122421 5.61161383,1.78123067 7.21875861,3.04016074 C8.57143879,2.71873178 9.96429759,2.57141018 11.3571564,2.57141018 C12.6160865,2.57141018 13.8884094,2.70533891 15.1071609,2.99998212 C16.7009128,1.75444492 18.053593,0.857122421 20.1428812,0.857122421 C20.5982388,1.76783779 20.8259177,2.77230328 20.8259177,3.77676876 C20.8259177,4.54016253 20.7053818,5.30355629 20.4643101,6.02677144 C21.7500259,7.5401661 22.2857409,9.40177546 22.2857409,11.3571349 Z" id="" fill="#A70808"></path>
    </g>
</svg>
