<?xml version="1.0" encoding="UTF-8"?>
<svg width="134px" height="40px" viewBox="0 0 134 40" version="1.1" xmlns="http://www.w3.org/2000/svg" xmlns:xlink="http://www.w3.org/1999/xlink">
    <g id="Page-1" stroke="none" stroke-width="1" fill="none" fill-rule="evenodd">
        <g id="Glyphic" fill-rule="nonzero" fill="#000000">
            <path d="M115.295147,20.6178733 C115.295147,12.9686423 120.923827,9.11309999 125.665938,9.11309999 C129.253448,9.11309999 132.160568,11.2779767 133.727526,13.6284142 L128.243172,16.8448025 L128.098847,16.8448025 C127.500928,13.7521215 126.799921,9.79348981 124.593808,9.79348981 C123.02685,9.79348981 121.459891,12.2263989 121.459891,17.9375497 C121.459891,24.4734156 124.820605,26.8650889 127.768961,26.8650889 C130.078162,26.8650889 132.098714,25.8960488 133.624437,24.1847654 L133.706908,24.1847654 C132.696632,27.3186821 129.191594,31.8339963 124.96493,31.8339963 C120.449616,31.8546142 115.295147,28.30834 115.295147,20.6178733 Z M105.068682,3.66998144 C105.068682,1.83499072 106.635641,0.350503846 108.614956,0.350503846 C110.553037,0.350503846 112.161231,1.81437285 112.161231,3.66998144 C112.161231,5.56682578 110.553037,7.07193053 108.614956,7.07193053 C106.635641,7.07193053 105.068682,5.54620791 105.068682,3.66998144 Z M103.316163,31.5247282 C105.522275,30.2258022 105.666601,28.4939009 105.666601,26.1434633 L105.666601,14.8448688 C105.666601,12.4531955 105.522275,10.741912 103.316163,9.54607533 L103.316163,9.46360383 L111.934434,9.46360383 L111.934434,26.1434633 C111.934434,28.4939009 111.97567,30.2464201 114.243636,31.4422567 L114.243636,31.5247282 L103.316163,31.5247282 Z M102.532684,31.4216389 L102.532684,31.5041104 L91.9350969,31.5041104 L91.9350969,31.4216389 C93.6876162,30.3701273 93.9556485,28.473283 93.9556485,26.1228454 L93.9556485,14.0613896 C93.9556485,12.6387563 93.3989659,11.3398303 91.9350969,11.3398303 C91.110382,11.3398303 90.1001062,11.4841554 88.7599445,12.3501061 L88.7599445,26.1228454 C88.7599445,28.473283 88.8424159,30.3701273 90.6567888,31.4216389 L90.6567888,31.5041104 L80.1004377,31.5041104 L80.1004377,31.4216389 C82.3477859,30.2258022 82.492111,28.473283 82.492111,26.1228454 L82.492111,6.04103687 C82.492111,3.64936357 82.3477859,1.89684434 80.1004377,0.701007691 L80.1004377,0.659771945 L88.7599445,0.659771945 L88.7599445,11.710952 C90.5124637,10.5975869 93.4195838,9.17495361 96.2236146,9.17495361 C99.2132062,9.17495361 100.182246,10.8862371 100.182246,12.8036993 L100.182246,26.1228454 C100.182246,28.4939009 100.326571,30.2258022 102.532684,31.4216389 Z M66.5544949,10.1027579 L66.4720234,30.9268099 L67.7090958,30.9268099 C70.4718909,30.9268099 72.6780033,29.8134448 72.6780033,23.0920181 C72.6780033,15.8551445 69.8739725,10.1027579 66.5544949,10.1027579 Z M66.4720234,31.5247282 L66.4720234,34.1019624 C66.4720234,36.4524 66.5544949,38.2049192 68.822461,39.4007558 L68.822461,39.4832273 L57.8537524,39.4832273 L57.8537524,39.4007558 C60.1011006,38.2049192 60.1629542,36.4524 60.1629542,34.1019624 L60.1629542,14.8448688 C60.1629542,12.4531955 60.1217185,10.741912 57.8537524,9.54607533 L57.8537524,9.46360383 L68.0802176,9.46360383 C74.4305225,9.46360383 79.1313976,12.6387563 79.1313976,19.8343941 C79.1313976,28.1227791 72.8635642,31.5247282 67.4822992,31.5247282 L66.4720234,31.5247282 Z M50.3900823,11.6697163 C50.3900823,13.7521215 51.8539513,16.2262663 56.286794,24.246619 L53.7507956,30.8855742 C51.3591223,37.1534076 49.8746355,39.9574384 45.6479714,39.9574384 C45.235614,39.9574384 44.7201671,39.9574384 44.5346063,39.8749669 L44.1222488,32.370061 L44.1634846,32.370061 C45.1325246,33.4834262 46.5963936,34.3081411 48.4107665,34.3081411 C50.5756431,34.3081411 52.1426015,33.5246619 53.1116416,30.9886635 L46.7613366,19.0509149 C43.3593875,12.7830814 42.4728189,10.3089366 41.4625432,9.5666932 L41.4625432,9.48422171 L52.2869266,9.48422171 L52.2869266,9.5666932 C50.6787325,9.8759613 50.3900823,10.7006762 50.3900823,11.6697163 Z M30.9680457,31.5247282 C33.2153938,30.2258022 33.2772475,28.4939009 33.2772475,26.1434633 L33.2772475,6.06165474 C33.2772475,3.66998144 33.2360117,1.91746221 30.9680457,0.721625565 L30.9680457,0.680389818 L39.5863167,0.680389818 L39.5863167,26.1434633 C39.5863167,28.4939009 39.6687882,30.2464201 41.9367542,31.4422567 L41.9367542,31.5247282 L30.9680457,31.5247282 L30.9680457,31.5247282 Z M0.103089366,16.102559 C0.103089366,5.38126492 8.61827103,0.0206178733 15.9994697,0.0206178733 C19.360183,0.0206178733 21.2570273,0.350503846 23.6487006,0.350503846 C24.6177407,0.350503846 25.6280165,0.309268099 26.2671706,0.12370724 L26.8238531,10.7212941 L26.7826174,10.7212941 C23.3188147,4.22666402 19.360183,0.721625565 14.9479581,0.721625565 C11.1748873,0.721625565 7.58737737,4.59778574 7.58737737,13.1542031 C7.58737737,22.6384249 12.8861708,31.1536065 18.7828826,31.1536065 C19.19524,31.1536065 19.7106869,31.1123708 19.9787192,31.1123708 L19.9787192,20.988995 C19.9787192,18.6797932 18.6797932,16.6592416 16.6592416,15.7314373 L16.6592416,15.6902016 L29.5454124,15.6902016 L29.5454124,15.7314373 C27.5248608,16.8860382 26.6382923,18.6797932 26.6382923,20.988995 L26.6382923,28.6588439 C23.9579687,30.0402414 19.8756298,32.0195572 16.7829488,32.0195572 C8.948157,32.0401751 0.103089366,26.8238531 0.103089366,16.102559 Z" id="Shape"></path>
        </g>
    </g>
</svg>
