<?xml version="1.0" encoding="UTF-8"?>
<svg width="30px" height="30px" viewBox="0 0 30 30" version="1.1" xmlns="http://www.w3.org/2000/svg" xmlns:xlink="http://www.w3.org/1999/xlink">
    <g id="Page-1" stroke="none" stroke-width="1" fill="none" fill-rule="evenodd">
        <g id="Group-2">
            <circle id="Oval-Copy-2" fill="#FFFFFF" cx="15" cy="15" r="15"></circle>
            <path d="M11.6765677,21.766 C11.5005492,21.766 11.4125413,21.6793342 11.4125413,21.506 L11.4125413,20.518 L11.3861386,20.518 C11.227722,20.9686689 10.9416962,21.328332 10.5280528,21.597 C10.1144094,21.865668 9.61716462,22 9.03630363,22 C8.66666482,22 8.30143195,21.9393339 7.94059406,21.818 C7.57975617,21.6966661 7.25412686,21.4930014 6.96369637,21.207 C6.67326587,20.9209986 6.44004488,20.5353358 6.2640264,20.05 C6.08800792,19.5646642 6,18.9666702 6,18.256 C6,17.5106629 6.1056095,16.8866692 6.31683168,16.384 C6.52805386,15.8813308 6.80967921,15.4740016 7.16171617,15.162 C7.51375314,14.8499984 7.92298997,14.6246674 8.38943894,14.486 C8.85588792,14.3473326 9.35313267,14.278 9.88118812,14.278 L11.2541254,14.278 C11.3597365,14.278 11.4125413,14.2260005 11.4125413,14.122 L11.4125413,13.394 C11.4125413,12.7006632 11.2893302,12.1936683 11.0429043,11.873 C10.7964784,11.5523317 10.3388372,11.392 9.669967,11.392 C9.24752264,11.392 8.87348898,11.4569994 8.54785479,11.587 C8.22222059,11.7170007 7.89219089,11.8946655 7.55775578,12.12 C7.38173729,12.2413339 7.24972541,12.2066676 7.16171617,12.016 L6.47524752,10.482 C6.40484013,10.3606661 6.43124251,10.2393339 6.55445545,10.118 C6.9768998,9.78866502 7.47854495,9.52000104 8.05940594,9.312 C8.64026693,9.10399896 9.29152554,9 10.0132013,9 C11.4565529,9 12.4818451,9.33366333 13.0891089,10.001 C13.6963727,10.6683367 14,11.764659 14,13.29 L14,21.506 C14,21.6793342 13.9119921,21.766 13.7359736,21.766 L11.6765677,21.766 Z M9.82838284,19.816 C10.3036327,19.816 10.6864672,19.651335 10.9768977,19.322 C11.2673282,18.992665 11.4125413,18.5680026 11.4125413,18.048 L11.4125413,16.566 C11.4125413,16.4619995 11.3597365,16.41 11.2541254,16.41 L10.330033,16.41 C9.67876462,16.41 9.22112343,16.5703317 8.95709571,16.891 C8.69306799,17.2116683 8.56105611,17.6319974 8.56105611,18.152 C8.56105611,19.2613389 8.98349413,19.816 9.82838284,19.816 Z" id="a" fill="#000000"></path>
            <path d="M19.506135,17.4492441 C19.322085,17.4492441 19.2300613,17.3628518 19.2300613,17.1900648 L19.2300613,14.5464363 C19.2300613,14.4427641 19.1748472,14.3909287 19.0644172,14.3909287 L16.2760736,14.3909287 C16.0920236,14.3909287 16,14.3045365 16,14.1317495 L16,12.3174946 C16,12.1447076 16.0920236,12.0583153 16.2760736,12.0583153 L19.0644172,12.0583153 C19.1748472,12.0583153 19.2300613,12.00648 19.2300613,11.9028078 L19.2300613,9.25917927 C19.2300613,9.08639222 19.322085,9 19.506135,9 L21.5214724,9 C21.7055224,9 21.797546,9.08639222 21.797546,9.25917927 L21.797546,11.9028078 C21.797546,12.00648 21.8527602,12.0583153 21.9631902,12.0583153 L24.7239264,12.0583153 C24.9079764,12.0583153 25,12.1447076 25,12.3174946 L25,14.1317495 C25,14.3045365 24.9079764,14.3909287 24.7239264,14.3909287 L21.9631902,14.3909287 C21.8527602,14.3909287 21.797546,14.4427641 21.797546,14.5464363 L21.797546,17.1900648 C21.797546,17.3628518 21.7055224,17.4492441 21.5214724,17.4492441 L19.506135,17.4492441 Z M16.2760736,21 C16.0920236,21 16,20.9136078 16,20.7408207 L16,18.9524838 C16,18.7796968 16.0920236,18.6933045 16.2760736,18.6933045 L24.7239264,18.6933045 C24.9079764,18.6933045 25,18.7796968 25,18.9524838 L25,20.7408207 C25,20.9136078 24.9079764,21 24.7239264,21 L16.2760736,21 Z" id="±" fill="#000000"></path>
        </g>
    </g>
</svg>
